<svg xmlns="http://www.w3.org/2000/svg"  viewBox="0 0 48 48" width="48px" height="48px" baseProfile="basic"><path fill="#f26322" d="M8.309,11.715c4.531-4.694,10.037-7.788,16.549-8.176c1.501-0.089,3.019-0.04,4.485,0.295	c1.199,0.274,2.348,0.737,3.446,1.291c6.565,3.316,11.213,10.183,11.786,17.515c0.101,1.288,0.084,2.588-0.092,3.868	c-0.25,1.818-0.816,3.577-1.439,5.303c-0.632,1.75-1.34,3.502-2.464,4.985c-1.862,2.457-4.692,3.964-7.482,5.276	c-2.329,1.095-4.744,2.123-7.306,2.367c-2.778,0.265-5.552-0.405-8.262-1.07c-1.279-0.314-2.578-0.636-3.718-1.295	c-0.87-0.503-1.62-1.187-2.351-1.876c-1.191-1.122-2.357-2.277-3.382-3.553c-2.886-3.592-4.585-8.167-4.513-12.774	C3.637,19.266,5.109,15.03,8.309,11.715z"/><path fill="#010101" d="M33.615,4.996c-2.027-1.107-4.186-1.835-6.502-1.968c-2.163-0.124-4.377,0.129-6.477,0.65	c-3.88,0.962-7.413,2.968-10.435,5.56c-0.783,0.671-1.529,1.383-2.247,2.123c-5.913,6.2-6.255,15.931-1.979,23.128	c1.184,1.993,2.712,3.727,4.37,5.336c0.796,0.772,1.596,1.556,2.494,2.21c0.924,0.673,1.974,1.108,3.065,1.428	c2.278,0.667,4.667,1.232,7.032,1.458c2.383,0.228,4.696-0.131,6.941-0.939c2.111-0.76,4.189-1.737,6.146-2.832	c1.852-1.036,3.604-2.305,4.907-4c1.376-1.79,2.172-3.955,2.898-6.071c0.791-2.305,1.332-4.658,1.303-7.107	C45.046,16.194,40.423,8.714,33.615,4.996z M41.858,33.497c-0.832,1.945-1.974,3.64-3.62,4.986c-1.563,1.279-3.389,2.21-5.206,3.07	c-2.003,0.948-4.06,1.848-6.252,2.248c-2.34,0.427-4.716,0.092-7.015-0.415c-2.098-0.463-4.448-0.841-6.245-2.089	c-0.898-0.624-1.684-1.419-2.467-2.179c-0.81-0.787-1.599-1.598-2.325-2.465c-5.128-6.123-6.398-15.435-1.911-22.283	c0.541-0.826,1.163-1.589,1.844-2.303c2.651-2.731,5.759-5.067,9.314-6.483C21.693,4.104,26.21,3.356,30.1,4.556	c7.055,2.176,12.39,8.984,13.714,16.108c0.397,2.134,0.456,4.367,0.058,6.504C43.469,29.33,42.722,31.478,41.858,33.497z"/><path fill="#d6e5e5" d="M28.005,18.272c-0.962-1.611-2.427-2.972-4.212-3.548c-0.345-0.111-0.702-0.194-1.027-0.354	c-0.258-0.127-0.49-0.3-0.732-0.457c-1.788-1.165-4.128-1.597-6.37-1.112c0.39,0.262,0.99,0.486,1.38,0.749	c-0.834-0.02-1.222,0.288-1.964,0.951c1.216-0.126,2.567-0.194,3.79,0.239c-1.96,0.492-3.323,1.971-4.15,3.815	c-0.827,1.844-0.882,3.986-0.335,5.931c0.166,0.589,0.383,1.163,0.581,1.742c1.509,4.439,1.784,9.191,2.778,13.773	c0.044,0.201,0.163,0.74,0.305,0.889c0,0,3.612,1.658,8.897,0.924c-2.022-8.597-3.336-7.816-3.269-11.744	c-1.673-1.069-2.364-2.304-1.925-3.587c0.679-1.982,7.993-2.895,7.993-2.895C29.465,21.732,28.967,19.883,28.005,18.272z"/><path fill="#010101" d="M33.26,7.831c-3.232-2.044-7.098-2.743-10.846-2.011c-3.768,0.735-7.185,2.77-10.069,5.246	c-0.766,0.658-1.496,1.355-2.198,2.081c-2.509,2.647-4.169,6.28-4.296,9.945c-0.072,2.07,0.503,4.058,1.26,5.966	c0.768,1.937,1.615,3.868,2.724,5.637c3.859,6.151,11.59,9.207,18.631,7.394c6.829-1.758,12.215-7.801,13.319-14.74	C42.966,19.927,39.68,11.891,33.26,7.831z M30.729,40.241c-6.094,2.746-13.699,1.203-18.248-3.7	c-1.301-1.402-2.281-3.064-3.11-4.779c-0.884-1.83-1.724-3.75-2.208-5.729c-0.858-3.514,0.171-7.227,2.12-10.202	c0.463-0.707,0.988-1.365,1.569-1.978c4.939-5.105,12.189-9.164,19.374-6.438c6.777,2.571,10.869,10.022,10.804,17.054	C40.969,31.222,36.892,37.465,30.729,40.241z"/><path fill="#febf10" d="M33.943,22.926c-1.387,0.238-2.822,0.279-4.16,0.715c-1.223,0.399-4.219,0.928-5.482,1.173	c-1.263,0.245-2.625,1.045-2.732,2.327c-0.057,0.687,0.277,1.362,0.76,1.854c0.483,0.491,1.103,0.824,1.727,1.116	c1.586,0.743,3.301,1.281,5.052,1.278s3.547-0.594,4.773-1.844c0.233-0.237,0.442-0.637,0.204-0.869	c-0.089-0.086-0.216-0.117-0.338-0.137c-1.254-0.208-2.504,0.311-3.769,0.434c-1.289,0.125-2.616-0.177-3.724-0.848	c-0.186-0.113-0.384-0.263-0.408-0.479c-0.051-0.441,0.568-0.586,1.012-0.581c2.84,0.033,5.682-0.896,7.954-2.6	c0.344-0.258,0.712-0.633,0.608-1.05C35.28,22.857,34.508,22.829,33.943,22.926z"/><path fill="#010101" d="M35.828,23.092c-0.355-0.762-1.311-0.753-2.018-0.648c-1.025,0.169-2.066,0.241-3.086,0.442	c-0.78,0.153-1.533,0.42-2.308,0.599c-1.435,0.331-2.892,0.551-4.33,0.865c-1.433,0.313-3.048,1.333-3.023,2.978	c0.029,1.919,1.957,2.905,3.487,3.545c1.88,0.786,3.921,1.232,5.955,0.892c0.871-0.146,1.728-0.446,2.488-0.898	c0.622-0.37,1.5-0.944,1.664-1.704c0.452-2.087-3.815-0.774-4.679-0.69c-1.061,0.103-2.142-0.09-3.095-0.57	c-0.145-0.073-0.504-0.2-0.386-0.298c0.1-0.083,0.47-0.038,0.573-0.039c0.497-0.005,0.993-0.035,1.487-0.095	c2.201-0.266,4.341-1.053,6.162-2.325C35.369,24.69,36.248,23.993,35.828,23.092z M33.861,24.519	c-0.737,0.479-1.523,0.886-2.344,1.2c-0.795,0.304-1.622,0.532-2.461,0.675c-0.827,0.141-1.651,0.099-2.479,0.186	c-0.464,0.048-0.989,0.23-1.17,0.702c-0.278,0.726,0.416,1.2,0.972,1.483c1.458,0.744,3.035,0.856,4.623,0.551	c0.443-0.085,0.883-0.194,1.33-0.262c0.149-0.022,1.241-0.194,1.327-0.042c0.072,0.129-0.76,0.723-0.845,0.782	c-0.362,0.25-0.754,0.462-1.164,0.623c-1.638,0.645-3.433,0.565-5.107,0.1c-0.833-0.231-1.645-0.548-2.421-0.927	c-0.805-0.393-1.724-0.922-1.989-1.846c-0.439-1.529,1.335-2.261,2.521-2.491c1.421-0.275,2.848-0.521,4.256-0.858	c0.698-0.167,1.376-0.407,2.08-0.546c1.02-0.201,2.061-0.273,3.086-0.442c0.256-0.038,0.842-0.136,0.824,0.26	C34.886,23.967,34.084,24.374,33.861,24.519z"/><path fill="#71c598" d="M29.108,37.22c-0.08-0.919-0.159-1.838-0.239-2.757c-0.023-0.271-0.086-0.597-0.342-0.691	c-0.148-0.055-0.313-0.007-0.461,0.047c-0.911,0.33-1.733,0.904-2.357,1.646l0.055,0.748l0.132,1.799	c0.187,0.447,0.956,0.771,1.438,0.815c0.364,0.033,0.742-0.001,1.071-0.158c0.33-0.157,0.607-0.448,0.691-0.804	C29.145,37.654,29.127,37.435,29.108,37.22z"/><path fill="#71c598" d="M22.744,36.217c-0.014-0.093-0.028-0.188-0.077-0.268c-0.042-0.068-0.105-0.12-0.167-0.17	c-0.965-0.77-2.133-1.431-3.261-1.932c-0.21,1.59-0.007,3.182,0.299,4.756c0.029,0.148,0.062,0.305,0.17,0.41	c0.121,0.118,0.304,0.141,0.473,0.138c0.439-0.006,0.867-0.14,1.277-0.298c0.402-0.156,0.812-0.351,1.067-0.698	c0.088-0.12,0.145-0.252,0.191-0.389l0.051-1.37C22.758,36.337,22.753,36.276,22.744,36.217z"/><path fill="#2b8c5e" d="M25.764,36.212c-0.055-0.19-0.104-0.383-0.181-0.565c-0.052-0.124-0.111-0.248-0.205-0.345	c-0.245-0.251-0.645-0.241-0.995-0.214c-0.577,0.045-1.218,0.122-1.589,0.566l-0.028,0.743l-0.051,1.37l-0.01,0.281	c0.521,0.332,1.526,0.43,1.875,0.453c0.504,0.032,1.103-0.03,1.315-0.489L25.764,36.212z"/><path fill="#010101" d="M29.544,36.481c-0.044-0.509-0.088-1.017-0.132-1.526c-0.037-0.425-0.022-0.921-0.267-1.291	c-0.3-0.453-0.821-0.475-1.289-0.299c-0.851,0.321-1.616,0.832-2.247,1.485c-0.258-0.195-0.581-0.273-0.918-0.276	c-0.385-0.003-0.792,0.043-1.166,0.128c-0.358,0.081-0.698,0.254-0.967,0.507c-0.948-0.716-1.981-1.309-3.065-1.794	c-0.013-0.006-0.027-0.006-0.04-0.011c-0.069-0.034-0.141-0.057-0.212-0.057c-0.04,0-0.072,0.014-0.108,0.022	c-0.011,0.002-0.021,0.004-0.032,0.006c-0.04,0.012-0.077,0.028-0.111,0.049c-0.029,0.016-0.056,0.036-0.081,0.059	c-0.011,0.011-0.021,0.023-0.031,0.035c-0.023,0.025-0.05,0.044-0.068,0.076c-0.036,0.062-0.052,0.136-0.058,0.213	c-0.002,0.013-0.009,0.025-0.01,0.039c-0.152,1.202-0.075,2.406,0.096,3.602c0.04,0.276,0.085,0.55,0.134,0.824	c0.05,0.28,0.081,0.579,0.207,0.837c0.268,0.55,0.886,0.58,1.418,0.502c0.515-0.075,1.023-0.26,1.49-0.489	c0.253-0.124,0.485-0.292,0.679-0.494c0.475,0.207,1.012,0.29,1.517,0.344c0.526,0.056,1.107,0.046,1.569-0.232	c0.429,0.365,1.053,0.558,1.569,0.591c0.895,0.056,1.895-0.37,2.15-1.3C29.704,37.538,29.588,36.983,29.544,36.481z M20.788,38.553	c-0.197,0.055-0.401,0.101-0.608,0.098c-0.043,0-0.117,0.01-0.156-0.016c0.066,0.044,0.022-0.038,0.011-0.091	c-0.097-0.467-0.177-0.94-0.243-1.413c-0.116-0.833-0.164-1.677-0.12-2.516c0.569,0.283,1.128,0.584,1.658,0.933	c0.185,0.122,0.367,0.248,0.546,0.379c0.104,0.076,0.297,0.177,0.36,0.284c0.067,0.113,0.058,0.383,0.07,0.512	c0.017,0.196,0.028,0.397,0.007,0.592C22.231,38.096,21.45,38.369,20.788,38.553z M25.278,37.937	c-0.016,0.005-0.036,0.012-0.043,0.014c-0.05,0.014-0.1,0.025-0.151,0.037c-0.009,0.002-0.01,0.003-0.016,0.004	c-0.041,0.005-0.082,0.008-0.123,0.01c-0.199,0.011-0.398-0.002-0.595-0.022c-0.056-0.005-0.111-0.012-0.167-0.018	c-0.005-0.001-0.016-0.002-0.027-0.003c-0.021-0.003-0.062-0.009-0.07-0.01c-0.137-0.021-0.274-0.046-0.409-0.076	c-0.146-0.032-0.29-0.071-0.431-0.12c-0.002-0.001-0.003-0.001-0.004-0.002c0.09-0.362,0.094-0.742,0.056-1.115	c-0.023-0.225-0.037-0.467-0.096-0.686c0.024-0.025,0.047-0.051,0.073-0.074c0.009-0.007,0.019-0.015,0.023-0.018	c0.027-0.017,0.054-0.034,0.082-0.05c0.028-0.016,0.057-0.03,0.085-0.045c0.004-0.002,0.016-0.007,0.026-0.011	c0.066-0.025,0.133-0.046,0.2-0.064c0.118-0.031,0.239-0.054,0.361-0.071c0.012-0.001,0.025-0.003,0.029-0.003	c0.034-0.003,0.067-0.007,0.101-0.01c0.075-0.007,0.15-0.014,0.225-0.019c0.137-0.01,0.273-0.014,0.411-0.006	c0.009,0.001,0.007,0,0.012,0c0.003,0.001,0.001,0.001,0.006,0.001c0.032,0.006,0.064,0.014,0.096,0.023	c0.012,0.004,0.025,0.008,0.038,0.013c0.002,0.004,0.017,0.013,0.029,0.019c0.062,0.055,0.117,0.177,0.149,0.26	c0.06,0.156,0.114,0.314,0.16,0.475c0.091,0.323,0.146,0.627,0.165,0.945c0.004,0.068,0.008,0.137,0.008,0.206	c0,0.018-0.012,0.203-0.003,0.146c-0.006,0.036-0.015,0.072-0.026,0.108c-0.033,0.113-0.019,0.042-0.008,0.024	c-0.009,0.016-0.019,0.032-0.029,0.047c-0.006,0.006-0.018,0.02-0.034,0.033c-0.002,0.001,0,0.001-0.002,0.002	c-0.022,0.013-0.044,0.027-0.066,0.039C25.309,37.923,25.292,37.931,25.278,37.937z M28.623,37.683	c-0.047,0.322-0.33,0.524-0.627,0.605c-0.454,0.123-1.22,0.027-1.56-0.368c0.027-0.13,0.045-0.263,0.045-0.398	c-0.001-0.423-0.066-0.856-0.169-1.266c-0.043-0.172-0.096-0.355-0.158-0.534c0.523-0.585,1.158-1.065,1.889-1.362	c0.09-0.036,0.186-0.075,0.282-0.098c0.047,0.109,0.051,0.279,0.061,0.398c0.044,0.509,0.088,1.017,0.132,1.526	c0.021,0.246,0.043,0.492,0.064,0.738C28.604,37.167,28.659,37.439,28.623,37.683z"/><path fill="#010101" d="M23.225,29.8c-0.238,0.93-0.061,1.883,0.254,2.772c0.299,0.842,0.722,1.632,0.855,2.525	c0.04,0.267,0.377,0.415,0.615,0.349c0.286-0.079,0.389-0.347,0.349-0.615c-0.237-1.593-1.537-3.097-1.109-4.765	C24.349,29.442,23.385,29.176,23.225,29.8L23.225,29.8z"/><path fill="#010101" d="M25.577,38.388c0.147,1.187,0.55,2.303,0.942,3.427c0.089,0.255,0.342,0.424,0.615,0.349	c0.248-0.068,0.438-0.359,0.349-0.615c-0.185-0.531-0.375-1.06-0.54-1.597c-0.082-0.266-0.157-0.535-0.221-0.806	c-0.059-0.247-0.119-0.553-0.145-0.758c-0.032-0.259-0.207-0.513-0.5-0.5C25.833,37.899,25.542,38.11,25.577,38.388L25.577,38.388z"/><path fill="#010101" d="M25.279,14.839c-0.75-0.426-1.604-0.56-2.356-0.953c-0.747-0.391-1.394-0.88-2.191-1.189	c-1.658-0.643-3.469-0.731-5.202-0.379c-0.441,0.089-0.463,0.7-0.119,0.914c0.102,0.063,0.21,0.114,0.315,0.171	c-0.347,0.193-0.668,0.448-1.001,0.744c-0.308,0.273-0.077,0.897,0.354,0.854c0.695-0.07,1.388-0.105,2.075-0.061	c-2.425,1.463-3.721,4.481-3.622,7.301c0.074,2.11,0.988,4.013,1.522,6.025c0.561,2.115,0.911,4.277,1.251,6.436	c0.189,1.199,0.374,2.398,0.591,3.592c0.105,0.577,0.215,1.153,0.339,1.726c0.082,0.378,0.155,0.8,0.38,1.123	c0.365,0.525,1.232,0.025,0.863-0.505c-0.401-0.576-0.43-1.595-0.555-2.264c-0.18-0.962-0.337-1.928-0.49-2.894	c-0.306-1.93-0.593-3.865-1.007-5.776c-0.206-0.952-0.444-1.897-0.729-2.829c-0.291-0.949-0.678-1.871-0.914-2.837	c-0.444-1.812-0.336-3.788,0.483-5.481c0.769-1.587,1.998-2.869,3.735-3.336c0.494-0.133,0.456-0.814,0-0.964	c-0.547-0.18-1.105-0.265-1.667-0.307c0.252-0.193,0.278-0.619-0.028-0.822c1.121-0.027,2.243,0.151,3.287,0.587	c0.753,0.315,1.374,0.855,2.118,1.174c0.687,0.296,1.405,0.44,2.063,0.814c2.868,1.631,4.01,4.937,4.487,8.018	c0.098,0.634,1.062,0.365,0.964-0.266C29.709,20.115,28.371,16.596,25.279,14.839z"/><path fill="#010101" d="M17.021,19.926c0.046-0.096,0.098-0.188,0.159-0.276c0.023-0.033,0.086-0.087-0.002-0.001	c0.015-0.015,0.027-0.033,0.04-0.049c0.034-0.04,0.07-0.079,0.108-0.117c0.037-0.038,0.076-0.074,0.117-0.108	c0.024-0.021,0.051-0.039,0.074-0.061c-0.018,0.017-0.079,0.058-0.025,0.021c0.093-0.063,0.186-0.123,0.287-0.174	c0.024-0.012,0.048-0.023,0.072-0.035c0.082-0.04-0.075,0.028-0.017,0.006c0.05-0.019,0.099-0.038,0.15-0.054	c0.102-0.032,0.205-0.053,0.31-0.074c0.063-0.013-0.131,0.012-0.023,0.003c0.026-0.002,0.053-0.005,0.079-0.007	c0.053-0.003,0.106-0.005,0.159-0.004c0.053,0.001,0.106,0.004,0.159,0.009c0.099,0.01-0.006,0.014-0.022-0.004	c0.011,0.013,0.079,0.014,0.094,0.018c0.255,0.052,0.552-0.074,0.615-0.349c0.057-0.25-0.075-0.559-0.349-0.615	c-1.114-0.228-2.349,0.321-2.848,1.365c-0.113,0.236-0.073,0.551,0.179,0.684C16.56,20.224,16.9,20.178,17.021,19.926L17.021,19.926	z"/><path fill="#010101" d="M25.427,18.714c0.053-0.034,0.107-0.067,0.163-0.096c0.019-0.01,0.133-0.056,0.053-0.026	c0.103-0.039,0.209-0.069,0.318-0.091c0.031-0.006,0.062-0.012,0.094-0.016c-0.054,0.007-0.051,0.007,0.009,0.001	c0.048-0.003,0.095-0.007,0.143-0.009c0.121-0.004,0.238,0.009,0.358,0.013c0.037,0.004,0.032,0.003-0.015-0.003	c0.035,0.005,0.07,0.011,0.104,0.017c0.061,0.011,0.121,0.023,0.181,0.037c0.12,0.028,0.239,0.061,0.357,0.098	c0.245,0.077,0.483,0.172,0.721,0.268c0.243,0.098,0.56-0.107,0.615-0.349c0.066-0.29-0.089-0.51-0.349-0.615	c-1.028-0.416-2.246-0.746-3.257-0.092c-0.219,0.142-0.33,0.45-0.179,0.684C24.885,18.753,25.192,18.866,25.427,18.714	L25.427,18.714z"/><path fill="#010101" d="M19.989,22.002c-0.108-0.326-0.378-0.565-0.704-0.664c-0.026-0.008-0.054-0.007-0.08-0.013	c-0.207-0.086-0.431-0.114-0.652-0.072c-0.225,0.042-0.464,0.178-0.614,0.35c-0.203,0.233-0.311,0.518-0.27,0.829	c0.036,0.27,0.17,0.526,0.384,0.7c0.226,0.184,0.507,0.311,0.805,0.285c0.332-0.029,0.628-0.206,0.855-0.446	C19.955,22.716,20.106,22.352,19.989,22.002z"/><path fill="#010101" d="M27.906,21.132c-0.062-0.21-0.2-0.376-0.382-0.494c-0.04-0.026-0.083-0.042-0.126-0.06	c-0.042-0.018-0.082-0.037-0.126-0.048c-0.089-0.023-0.188-0.039-0.28-0.03c-0.145,0.013-0.25,0.037-0.38,0.105	c-0.062,0.032-0.112,0.073-0.158,0.119c0,0,0,0-0.001,0c-0.024,0.011-0.045,0.026-0.066,0.042c-0.053,0.04-0.11,0.079-0.154,0.129	c-0.089,0.103-0.154,0.207-0.193,0.338c-0.018,0.062-0.025,0.13-0.029,0.193c-0.004,0.07,0.01,0.145,0.024,0.212	c0.013,0.064,0.044,0.125,0.07,0.184c0.013,0.029,0.028,0.055,0.046,0.08c0.087,0.121,0.164,0.199,0.288,0.283	c0.025,0.017,0.051,0.031,0.078,0.043c0.063,0.029,0.13,0.06,0.198,0.077c0.241,0.059,0.474,0.023,0.693-0.087	c0.025-0.012,0.048-0.027,0.071-0.043c0.056-0.04,0.115-0.082,0.164-0.131c0.069-0.067,0.131-0.147,0.176-0.232	c0.07-0.134,0.097-0.245,0.114-0.392c0.003-0.029,0.005-0.057,0.003-0.086C27.932,21.27,27.925,21.197,27.906,21.132z"/></svg>